<svg width="279" height="60" viewBox="0 0 279 60" fill="none" xmlns="http://www.w3.org/2000/svg">
<rect width="278.75" height="60" fill="#F4EFEC"/>
<path d="M78.0881 22.4545H81.1278V32.5966C81.1278 33.5341 80.9171 34.3485 80.4957 35.0398C80.0791 35.7311 79.4991 36.2637 78.7557 36.6378C78.0123 37.0118 77.1482 37.1989 76.1634 37.1989C75.2874 37.1989 74.492 37.045 73.777 36.7372C73.0668 36.4247 72.5033 35.9512 72.0866 35.3168C71.67 34.6776 71.464 33.875 71.4688 32.9091H74.5298C74.5393 33.2926 74.6174 33.6217 74.7642 33.8963C74.9157 34.1662 75.1217 34.3745 75.3821 34.5213C75.6473 34.6634 75.9598 34.7344 76.3196 34.7344C76.6984 34.7344 77.018 34.6539 77.2784 34.4929C77.5436 34.3272 77.7448 34.0857 77.8821 33.7685C78.0194 33.4512 78.0881 33.0606 78.0881 32.5966V22.4545ZM88.8267 37H83.6705V22.4545H88.8693C90.3324 22.4545 91.5919 22.7457 92.6477 23.3281C93.7036 23.9058 94.5156 24.7367 95.0838 25.821C95.6567 26.9053 95.9432 28.2027 95.9432 29.7131C95.9432 31.2282 95.6567 32.5303 95.0838 33.6193C94.5156 34.7083 93.6989 35.544 92.6335 36.1264C91.5729 36.7088 90.304 37 88.8267 37ZM86.7457 34.3651H88.6989C89.608 34.3651 90.3726 34.2041 90.9929 33.8821C91.6179 33.5554 92.0866 33.0511 92.3991 32.3693C92.7164 31.6828 92.875 30.7973 92.875 29.7131C92.875 28.6383 92.7164 27.7599 92.3991 27.0781C92.0866 26.3963 91.6203 25.8944 91 25.5724C90.3797 25.2505 89.6151 25.0895 88.706 25.0895H86.7457V34.3651ZM101.297 22.4545V37H98.2212V22.4545H101.297ZM103.827 37V22.4545H106.902V28.456H113.145V22.4545H116.213V37H113.145V30.9915H106.902V37H103.827ZM122.824 24.9901V22.4545H134.77V24.9901H130.316V37H127.277V24.9901H122.824ZM145.721 22.4545H148.797V31.9006C148.797 32.9612 148.543 33.8892 148.037 34.6847C147.535 35.4801 146.832 36.1004 145.927 36.5455C145.023 36.9858 143.969 37.206 142.767 37.206C141.559 37.206 140.503 36.9858 139.599 36.5455C138.695 36.1004 137.992 35.4801 137.49 34.6847C136.988 33.8892 136.737 32.9612 136.737 31.9006V22.4545H139.812V31.6378C139.812 32.1918 139.933 32.6842 140.174 33.1151C140.421 33.5459 140.766 33.8845 141.211 34.1307C141.656 34.3769 142.175 34.5 142.767 34.5C143.363 34.5 143.882 34.3769 144.322 34.1307C144.767 33.8845 145.11 33.5459 145.352 33.1151C145.598 32.6842 145.721 32.1918 145.721 31.6378V22.4545ZM151.327 37V22.4545H157.151C158.221 22.4545 159.113 22.6132 159.828 22.9304C160.543 23.2476 161.08 23.688 161.44 24.2514C161.8 24.8101 161.98 25.4541 161.98 26.1832C161.98 26.7514 161.866 27.2509 161.639 27.6818C161.412 28.108 161.099 28.4583 160.702 28.733C160.309 29.0028 159.859 29.1946 159.352 29.3082V29.4503C159.906 29.474 160.425 29.6302 160.908 29.919C161.395 30.2079 161.791 30.6127 162.094 31.1335C162.397 31.6496 162.548 32.2652 162.548 32.9801C162.548 33.7519 162.357 34.4408 161.973 35.0469C161.594 35.6482 161.033 36.1241 160.29 36.4744C159.546 36.8248 158.63 37 157.541 37H151.327ZM154.402 34.4858H156.909C157.766 34.4858 158.391 34.3224 158.784 33.9957C159.177 33.6643 159.374 33.224 159.374 32.6747C159.374 32.2723 159.277 31.9171 159.082 31.6094C158.888 31.3016 158.611 31.0601 158.251 30.8849C157.896 30.7098 157.473 30.6222 156.98 30.6222H154.402V34.4858ZM154.402 28.5412H156.682C157.103 28.5412 157.477 28.4678 157.804 28.321C158.135 28.1695 158.396 27.9564 158.585 27.6818C158.779 27.4072 158.876 27.0781 158.876 26.6946C158.876 26.169 158.689 25.7453 158.315 25.4233C157.946 25.1013 157.42 24.9403 156.739 24.9403H154.402V28.5412ZM167.056 37H163.761L168.782 22.4545H172.745L177.76 37H174.464L170.821 25.7784H170.707L167.056 37ZM166.85 31.2827H174.635V33.6832H166.85V31.2827ZM179.51 37V22.4545H185.334C186.404 22.4545 187.297 22.6132 188.012 22.9304C188.727 23.2476 189.264 23.688 189.624 24.2514C189.984 24.8101 190.164 25.4541 190.164 26.1832C190.164 26.7514 190.05 27.2509 189.823 27.6818C189.596 28.108 189.283 28.4583 188.885 28.733C188.492 29.0028 188.042 29.1946 187.536 29.3082V29.4503C188.09 29.474 188.608 29.6302 189.091 29.919C189.579 30.2079 189.974 30.6127 190.277 31.1335C190.58 31.6496 190.732 32.2652 190.732 32.9801C190.732 33.7519 190.54 34.4408 190.157 35.0469C189.778 35.6482 189.217 36.1241 188.473 36.4744C187.73 36.8248 186.814 37 185.725 37H179.51ZM182.586 34.4858H185.093C185.95 34.4858 186.575 34.3224 186.968 33.9957C187.361 33.6643 187.557 33.224 187.557 32.6747C187.557 32.2723 187.46 31.9171 187.266 31.6094C187.072 31.3016 186.795 31.0601 186.435 30.8849C186.08 30.7098 185.656 30.6222 185.164 30.6222H182.586V34.4858ZM182.586 28.5412H184.865C185.287 28.5412 185.661 28.4678 185.988 28.321C186.319 28.1695 186.579 27.9564 186.769 27.6818C186.963 27.4072 187.06 27.0781 187.06 26.6946C187.06 26.169 186.873 25.7453 186.499 25.4233C186.13 25.1013 185.604 24.9403 184.922 24.9403H182.586V28.5412ZM195.24 37H191.945L196.966 22.4545H200.929L205.943 37H202.648L199.004 25.7784H198.891L195.24 37ZM195.034 31.2827H202.818V33.6832H195.034V31.2827Z" fill="#680000"/>
<line x1="220" y1="29.5" x2="250" y2="29.5" stroke="#680000"/>
<path d="M28 30H58" stroke="#680000"/>
</svg>
